<?xml version="1.0" standalone="no"?><!DOCTYPE svg PUBLIC "-//W3C//DTD SVG 1.1//EN" "http://www.w3.org/Graphics/SVG/1.1/DTD/svg11.dtd"><svg t="1594180177154" class="icon" viewBox="0 0 1228 1024" version="1.1" xmlns="http://www.w3.org/2000/svg" p-id="3271" width="153.5" height="128" xmlns:xlink="http://www.w3.org/1999/xlink"><defs><style type="text/css"></style></defs><path d="M614.600588 215.53144a274.604505 274.604505 0 0 1 279.318315 269.389226 253.943976 253.943976 0 0 1-20.058766 98.588834l163.178061 157.361019a638.169638 638.169638 0 0 0 191.561214-255.949853A660.635455 660.635455 0 0 0 613.998825 80.836827a671.968658 671.968658 0 0 0-222.35142 37.71048l120.352595 116.340842a279.819785 279.819785 0 0 1 102.199412-19.356709zM55.963957 68.500686l127.373163 122.859941 25.675221 24.772576A638.671107 638.671107 0 0 0 0 485.02096a660.735749 660.735749 0 0 0 614.600588 404.083839 679.490695 679.490695 0 0 0 244.716944-45.232517l23.268168 22.666406 163.779824 157.361018 71.008031-68.500685L126.771401 0 55.863663 68.500686z m308.904995 297.972967l86.653869 83.54476a147.030754 147.030754 0 0 0-4.513223 35.002547A166.387463 166.387463 0 0 0 650.906954 641.880509l86.653869 83.444467a285.235651 285.235651 0 0 1-122.859942 28.583741 274.704799 274.704799 0 0 1-279.418609-268.988051 259.359843 259.359843 0 0 1 30.088149-118.547307z m240.705191-42.023114l176.115965 169.697159 1.103232-8.625269a164.481881 164.481881 0 0 0-167.590989-161.673653l-9.527914 0.501469z" p-id="3272"></path></svg>